<?xml version="1.0" encoding="iso-8859-1"?>
<!-- Generator: Adobe Illustrator 19.0.0, SVG Export Plug-In . SVG Version: 6.00 Build 0)  -->
<svg version="1.1" id="Capa_1" xmlns="http://www.w3.org/2000/svg" xmlns:xlink="http://www.w3.org/1999/xlink" x="0px" y="0px"
	 viewBox="0 0 512 512" style="enable-background:new 0 0 512 512;" xml:space="preserve">
<g>
	<g>
		<path d="M89.561,361.034c-14.071,0-25.517,11.447-25.517,25.517c0,14.07,11.447,25.517,25.517,25.517
			c14.07,0,25.517-11.447,25.517-25.517C115.078,372.481,103.631,361.034,89.561,361.034z M89.561,397.059
			c-5.794,0-10.507-4.713-10.507-10.507c0-5.794,4.713-10.507,10.507-10.507c5.794,0,10.507,4.713,10.507,10.507
			C100.068,392.345,95.354,397.059,89.561,397.059z"/>
	</g>
</g>
<g>
	<g>
		<path d="M421.785,361.034c-14.07,0-25.517,11.447-25.517,25.517c0,14.07,11.447,25.517,25.517,25.517
			c14.071,0,25.517-11.447,25.517-25.517C447.302,372.481,435.856,361.034,421.785,361.034z M421.785,397.059
			c-5.794,0-10.507-4.713-10.507-10.507c0-5.794,4.713-10.507,10.507-10.507c5.794,0,10.507,4.713,10.507,10.507
			C432.292,392.345,427.579,397.059,421.785,397.059z"/>
	</g>
</g>
<g>
	<g>
		<path d="M503.552,75.137l-3.06-2.04c-8.712-5.809-20.526-3.448-26.334,5.264L366.224,240.213c-2.822-1.443-6.021-1.902-9.18-1.27
			c-3.703,0.74-6.899,2.879-8.993,6.022l-10.672,16.003c-5.582-1.308-11.643,0.862-15.005,5.904l-10.245,15.362l-38.878-26.78
			c-10.513-7.241-24.642-7.242-35.155,0l-45.579,31.396l-11.719-15.899l4.995-7.216c2.36-3.408,1.509-8.083-1.898-10.443
			s-8.083-1.509-10.443,1.898l-2.068,2.988l-8.924-12.107l2.32-3.351c2.36-3.408,1.509-8.083-1.898-10.443
			c-3.116-2.157-7.289-1.624-9.786,1.09l-9.998-13.56v-9.876h55.58c9.081,0,16.469-7.388,16.469-16.469v-23.342
			c0-4.698-2.855-8.765-7.274-10.361c-4.418-1.597-9.214-0.293-12.217,3.32l-4.008,4.823H74.05c-4.145,0-7.505,3.36-7.505,7.505
			c0,4.145,3.36,7.505,7.505,7.505h121.119c1.842,0,3.605-0.676,4.966-1.878v12.426c0,0.805-0.654,1.459-1.459,1.459H16.47
			c-0.806,0-1.46-0.654-1.46-1.459v-15.336l2.756,2.672c1.4,1.357,3.273,2.116,5.224,2.116h21.04c4.145,0,7.505-3.36,7.505-7.505
			c0-4.145-3.36-7.505-7.505-7.505H26.031l-7.345-7.12c-3.184-3.086-7.88-3.964-11.963-2.235C2.639,160.277,0,164.259,0,168.694
			v24.768c0,9.081,7.388,16.469,16.47,16.469h55.579v20.614c0,9.602,7.811,17.412,17.412,17.412h23.462l15.536,20.856l-3.04,4.392
			c-2.36,3.408-1.509,8.083,1.898,10.443c1.303,0.903,2.792,1.335,4.265,1.335c2.38,0,4.72-1.129,6.177-3.233l0.161-0.233
			l8.97,12.041l-0.458,0.661c-2.36,3.408-1.509,8.083,1.898,10.443c1.303,0.903,2.792,1.335,4.265,1.335
			c1.056,0,2.098-0.234,3.065-0.665l3.399,4.564l-41.608,28.66c-8.203-4.786-17.73-7.543-27.893-7.543
			c-30.624,0-55.538,24.914-55.538,55.538c0,30.624,24.914,55.538,55.538,55.538c22.61,0,42.094-13.589,50.75-33.022h17.641
			l1.483,12.368c0.934,7.781,7.548,13.649,15.385,13.649h163.705c7.837,0,14.451-5.868,15.384-13.649l1.484-12.368h15.641
			c8.656,19.433,28.14,33.022,50.75,33.022c30.624,0,55.538-24.914,55.538-55.538c0-30.624-24.914-55.538-55.538-55.538
			c-10.163,0-19.689,2.757-27.892,7.543l-11.708-8.064l10.955-16.428c2.095-3.143,2.842-6.914,2.101-10.618
			c-0.405-2.026-1.242-3.892-2.419-5.517l10.666-15.995c2.095-3.143,2.842-6.914,2.101-10.618c-0.631-3.158-2.287-5.94-4.707-7.991
			l107.934-161.852C514.624,92.76,512.263,80.946,503.552,75.137z M128.087,230.545c0,1.325-1.078,2.402-2.402,2.402H89.46
			c-1.324,0.001-2.402-1.077-2.402-2.402v-20.614h41.028V230.545z M137.474,255.791l-6.461-8.675
			c3.586-1.156,6.659-3.449,8.812-6.449l4.187,5.681L137.474,255.791z M334.38,275.923l45.79,30.536l-10.349,15.518l-45.33-31.224
			L334.38,275.923z M240.162,272.257l6.447-4.441c5.422-3.734,12.707-3.732,18.126,0l8.449,5.82v33.456l-14.138-4.712
			c-1.542-0.513-3.207-0.513-4.747,0l-14.138,4.712V272.257z M171.765,283.998l8.383,11.373l-8.717,6.005l-6.062-8.138
			L171.765,283.998z M155.905,280.535l-8.969-12.041l6.489-9.374l8.924,12.107L155.905,280.535z M89.561,427.079
			c-22.347,0-40.527-18.18-40.527-40.527s18.18-40.527,40.527-40.527s40.527,18.18,40.527,40.527S111.908,427.079,89.561,427.079z
			 M366.769,394.056h-59.561c-4.146,0-7.505,3.36-7.505,7.505c0,4.145,3.359,7.505,7.505,7.505h33.069l-1.269,10.58
			c-0.029,0.244-0.236,0.427-0.481,0.427H174.821c-0.246,0-0.453-0.184-0.481-0.427l-1.269-10.58h104.116
			c4.146,0,7.505-3.36,7.505-7.505c0-4.145-3.359-7.505-7.505-7.505H144.577c0.333-2.457,0.521-4.958,0.521-7.505
			c0-14.815-5.843-28.283-15.33-38.252l95.384-65.702v34.908c0,2.413,1.16,4.678,3.117,6.088c1.957,1.41,4.472,1.793,6.762,1.032
			l21.643-7.214l21.643,7.214c0.776,0.258,1.576,0.385,2.373,0.385c1.556,0,3.095-0.483,4.39-1.417
			c1.956-1.411,3.116-3.677,3.116-6.088v-33.529l93.383,64.324c-9.487,9.968-15.33,23.436-15.33,38.251
			C366.247,389.098,366.436,391.6,366.769,394.056z M421.785,346.024c22.347,0,40.527,18.18,40.527,40.527
			s-18.18,40.527-40.527,40.527s-40.527-18.18-40.527-40.527S399.438,346.024,421.785,346.024z M380.828,288.855l-30.462-20.314
			l9.69-14.527l30.461,20.313L380.828,288.855z M496.326,93.143L388.451,254.908l-9.68-6.455L486.647,86.688
			c0.589-0.885,1.488-1.486,2.53-1.694c1.043-0.21,2.102,0,2.987,0.591l3.06,2.04C497.05,88.842,497.544,91.318,496.326,93.143z"/>
	</g>
</g>
<g>
	<g>
		<circle cx="169.615" cy="364.537" r="8.506"/>
	</g>
</g>
<g>
	<g>
		<circle cx="343.732" cy="364.537" r="8.506"/>
	</g>
</g>
<g>
</g>
<g>
</g>
<g>
</g>
<g>
</g>
<g>
</g>
<g>
</g>
<g>
</g>
<g>
</g>
<g>
</g>
<g>
</g>
<g>
</g>
<g>
</g>
<g>
</g>
<g>
</g>
<g>
</g>
</svg>
