<?xml version="1.0" encoding="iso-8859-1"?>
<!-- Generator: Adobe Illustrator 19.0.0, SVG Export Plug-In . SVG Version: 6.00 Build 0)  -->
<svg version="1.1" id="Capa_1" xmlns="http://www.w3.org/2000/svg" xmlns:xlink="http://www.w3.org/1999/xlink" x="0px" y="0px"
	 viewBox="0 0 512 512" style="enable-background:new 0 0 512 512;" xml:space="preserve">
<g>
	<g>
		<path d="M498.282,13.158c-17.554-17.551-46.117-17.551-63.705,0.037L227.719,221.444c-12.086-0.832-24.2,3.46-33.331,12.136
			c-43.6-14.521-92.69-6.269-129.029,24.127c-17.099-8.397-37.311-5.263-51.43,8.15c-0.093,0.088-0.185,0.177-0.274,0.267
			c-17.47,17.47-17.471,45.897,0,63.37l169.422,169.423c18.39,18.384,47.531,16.52,63.503-0.137
			c13.876-13.993,16.658-34.896,8.369-51.673c30.685-36.759,38.363-85.925,24.04-128.925c8.69-9.146,12.984-21.282,12.134-33.387
			L498.286,76.829C515.835,59.274,515.835,30.713,498.282,13.158z M225.281,477.75c-5.546,5.56-15.087,5.949-21.039,0L34.822,308.33
			c-5.757-5.758-5.8-15.097-0.132-20.907c6.363-5.921,15.262-5.918,21.625,0.022l168.965,168.965
			C231.065,462.194,231.065,471.967,225.281,477.75z M257.009,297.853l-5.986,5.986c-4.292,4.292-5.568,10.752-3.227,16.352
			c14.674,35.122,9.548,74.379-12.641,103.763L88.617,277.414c29.385-22.188,68.642-27.315,103.763-12.641
			c5.6,2.34,12.06,1.065,16.352-3.227l5.986-5.986c3.754-3.754,9.045-5.188,13.812-3.744c1.15,0.349,4.662,0.876,7.528,3.744
			l20.952,20.952C260.661,280.164,264.307,290.555,257.009,297.853z M477.117,55.666c-0.007,0.007-0.013,0.013-0.02,0.02
			L278.193,255.364c-0.006-0.006-0.012-0.011-0.018-0.017l-20.951-20.951c-0.03-0.03-0.06-0.06-0.09-0.09L455.777,34.326
			c5.785-5.783,15.557-5.783,21.34-0.001C482.901,40.109,482.901,49.882,477.117,55.666z"/>
	</g>
</g>
<g>
</g>
<g>
</g>
<g>
</g>
<g>
</g>
<g>
</g>
<g>
</g>
<g>
</g>
<g>
</g>
<g>
</g>
<g>
</g>
<g>
</g>
<g>
</g>
<g>
</g>
<g>
</g>
<g>
</g>
</svg>
