<svg id="_x33_0" enable-background="new 0 0 64 64" height="512" viewBox="0 0 64 64" width="512" xmlns="http://www.w3.org/2000/svg"><g><circle cx="17" cy="20" r="1"/><path d="m47 26.184v-2.184h-2v2h-2v3c0 1.654 1.346 3 3 3 .552 0 1 .448 1 1v1h-1c-.552 0-1-.448-1-1v-1h-2v1c0 1.302.839 2.402 2 2.816v2.184h2v-2h2v-3c0-1.654-1.346-3-3-3-.552 0-1-.448-1-1v-1h1c.552 0 1 .448 1 1v1h2v-1c0-1.302-.839-2.402-2-2.816z"/><path d="m43 40h2v2h-2z"/><path d="m47 40h2v2h-2z"/><path d="m44 20c-2.119 0-4.19.399-6.156 1.186l-.048.019c.123-.693.204-1.42.204-2.205v-2c1.103 0 2-.897 2-2v-2c0-1.103-.897-2-2-2h-.051c-.507-5.598-5.221-10-10.949-10h-4c-5.728 0-10.442 4.402-10.949 10h-.051c-1.103 0-2 .897-2 2v2c0 1.103.897 2 2 2h.034c.126 3.966.579 8.011.821 9.955l-.302.151c-2.809 1.404-4.553 4.226-4.553 7.366v6.085c-1.19.693-2 1.969-2 3.443s.81 2.75 2 3.444v3.556c0 1.654 1.346 3 3 3s3-1.346 3-3v-2.162l6 4.444v9.718h21v-15.72l1.27.317c1.066.268 2.165.403 3.264.403 6.874 0 12.466-5.592 12.466-12.466v-1.534c0-7.72-6.28-14-14-14zm-8-1c0 4.656-2.878 7.352-4.453 8.48l-.403-1.209.502-.503c.861-.861 1.354-2.051 1.354-3.268s-.493-2.407-1.354-3.268l-.232-.232c-1.289-1.289-3.539-1.289-4.828 0l-.586.586v-2.586h10zm-6.678 23.591 2.572-5.144-1.789-.895-3.428 6.856 1.07.595-2.031 2.708-3.709-1.998c.098-5.049 3.252-9.541 8.074-11.47l2.257-.902c1.959-.783 4.331-.116 5.594 1.569.689.918 1.068 2.055 1.068 3.202 0 1.146-.184 2.276-.545 3.362l-2.022 6.066zm-15.322-13.591h2v.382c0 1.379.767 2.619 2.002 3.237.394.195.825.295 1.261.339-.812 1.716-1.103 3.289-1.206 4.208-1.19.398-2.057 1.511-2.057 2.834v1.479l-1.193-.643c-.261-.14-.531-.262-.807-.368zm4-16v2h-2v-2zm2 0h2v2h-2zm5-9.846c1.218.755 4.519 3.216 4.948 7.846h-9.896c.429-4.63 3.73-7.091 4.948-7.846zm9 9.846v2h-2v-2zm-4 2h-2v-2h2zm-4-2v2h-2v-2zm.42 8.907.161-.074 1.419-1.419c.535-.533 1.465-.533 2 0l.232.232c.488.489.768 1.164.768 1.854s-.28 1.365-.768 1.854l-1.377 1.376 1.721 5.163-1.237.495c-1.142.457-2.197 1.043-3.164 1.729l-.834-1.669 3.105-1.553-.895-1.789-3.871 1.936c-1.253.627-2.654.958-4.055.958-.003 0-.007 0-.011 0-.249 0-.499-.059-.722-.17-.549-.276-.892-.831-.892-1.448v-2.382h-3.124c-.064-.499-.149-1.199-.241-2.032 5.794-.316 11.529-2.942 11.785-3.061zm-4.012 15.093h-2.31c.151-.995.541-2.598 1.522-4.202.648-.119 1.286-.285 1.902-.516l1.065 2.13c-.828.78-1.557 1.65-2.179 2.588zm-4.408 3c0-.552.448-1 1-1h2.3c-.664 1.458-1.094 3.029-1.24 4.665l-2.06-1.109zm20.002-25h-2.002v-2h2zm-2.061-4h-3.993c-.29-3.755-2.147-6.339-3.812-7.92 4.1.52 7.347 3.801 7.805 7.92zm-14.077-7.92c-1.665 1.581-3.522 4.165-3.812 7.92h-3.993c.458-4.119 3.705-7.4 7.805-7.92zm-9.864 9.92h2v2h-2zm12 4v3.742c-2.067.792-5.862 2.047-9.569 2.233-.17-1.794-.328-3.895-.396-5.975zm-14 17.472c0-1.777.738-3.421 2-4.581v10.141c-.171-.013-.341-.032-.513-.032h-1.487zm1 17.528c-.552 0-1-.448-1-1v-3h1.919c.027 0 .054.01.081.01v2.99c0 .552-.448 1-1 1zm3.438-5.319c-.765-.446-1.636-.681-2.519-.681h-1.919c-1.103 0-2-.897-2-2s.897-2 2-2h1.487c.825 0 1.646.206 2.37.598l12.426 6.69 3.229-4.304 4.149 2.305-2.516 3.991c-1.064 1.703-2.898 2.72-4.906 2.72-1.231 0-2.455-.403-3.444-1.137l-8.266-6.122zm7.562 14.319v-6.283c1.257.817 2.738 1.283 4.239 1.283 2.702 0 5.17-1.368 6.6-3.656l2.573-4.082 2.155 1.197 1.433-4.297v15.838zm34-25.466c0 5.771-4.695 10.466-10.466 10.466-.937 0-1.872-.115-2.78-.342l-1.754-.438v-8.107c0-1.578-.521-3.142-1.468-4.401-1.272-1.698-3.299-2.712-5.42-2.712-.562 0-1.115.076-1.655.212l-.254-.763c1.219-.788 3.595-2.654 4.894-5.812l1.488-.595c1.73-.691 3.552-1.042 5.415-1.042 6.617 0 12 5.383 12 12z"/></g></svg>