<svg id="icons" enable-background="new 0 0 64 64" height="512" viewBox="0 0 64 64" width="512" xmlns="http://www.w3.org/2000/svg"><path d="m55.705 16.316-12.021-12.021c-.391-.391-1.023-.391-1.414 0l-1.556 1.556c-1.111-.498-2.513-.315-3.396.567l-1.412 1.412c-.921.921-1.105 2.291-.577 3.404l-3.667 3.666c-.521.521-.687 1.259-.511 1.925l-3.149 3.15v-2.254c.596-.347 1.002-.986 1.002-1.724v-5.185c1.161-.414 2-1.514 2-2.815v-1.995c0-1.302-.839-2.401-2-2.815v-2.189c0-.553-.447-1-1-1h-17.002c-.553 0-1 .447-1 1v2.188c-1.161.414-2 1.514-2 2.815v1.996c0 1.302.839 2.401 2 2.815v5.185c0 .736.405 1.375 1 1.722v28.561c-.595.347-1 .985-1 1.722v5.185c-1.161.414-2 1.514-2 2.815v1.996c0 1.302.839 2.401 2 2.815v2.188c0 .553.447 1 1 1h17.002c.553 0 1-.447 1-1v-2.188c1.161-.414 2-1.514 2-2.815v-1.996c0-1.302-.839-2.401-2-2.815v-5.185c0-.737-.406-1.376-1.002-1.723v-2.262l15.17-15.17c.166.045.336.075.513.075h.003c.531-.001 1.031-.209 1.408-.586 0 0 .001 0 .002-.001l3.666-3.665c.397.189.831.299 1.285.299.803 0 1.557-.312 2.121-.876l1.412-1.412c.921-.921 1.105-2.291.577-3.405l1.546-1.546c.391-.39.391-1.023 0-1.414zm-43.703-14.318h15.002v1.004h-15.002zm15.002 60.004h-15.002v-1.004h15.002zm1-7c.552 0 1 .448 1 1v1.996c0 .552-.448 1-1 1h-17.002c-.552 0-1-.448-1-1v-1.996c0-.552.448-1 1-1zm-16.002-39.004v-5h15.002v4.992c0 .003-.002.005-.002.008zm14 2v25.598.02 2.387h-13v-28.005zm1 30.004h.002v5h-15.002v-5zm-16-39.004c-.552 0-1-.448-1-1v-1.996c0-.552.448-1 1-1h17.002c.552 0 1 .448 1 1v1.996c0 .552-.448 1-1 1zm17 32.191v-18.384l4.367-4.369 9.193 9.193zm15.682-14.267-10.608-10.608 3.537-3.535 10.607 10.607zm8.484-5.654-1.412 1.412c-.375.373-1.039.373-1.414 0l-12.022-12.022c-.39-.39-.39-1.024 0-1.414l1.412-1.412c.188-.187.438-.29.707-.29s.52.104.707.29l12.021 12.021c.391.39.391 1.025.001 1.415zm.707-3.536-10.607-10.607.709-.709 10.607 10.607z"/></svg>